<svg width="24" height="24" viewBox="0 0 24 24" fill="none" xmlns="http://www.w3.org/2000/svg">
<path fill-rule="evenodd" clip-rule="evenodd" d="M7.00098 4V11C7.00098 13.7614 9.23955 16 12.001 16C14.7624 16 17.001 13.7614 17.001 11V4.66667V4H7.00098ZM5.51711 2C5.23206 2 5.00098 2.23108 5.00098 2.51613V11C5.00098 11.3799 5.03124 11.7527 5.08948 12.1162C4.24235 11.4824 3.66082 10.6808 3.39772 10.1721V6.00049L5 6V4L2.99984 4.00033C2.44762 4.00042 2 4.44811 2 5.00033V10.8338L2.13977 11.1005C2.16039 11.1398 2.18405 11.1863 2.2109 11.2391L2.21097 11.2392C2.56096 11.9268 3.83376 13.3446 5.73026 14.1144C6.73455 16.1326 8.68443 17.5974 11 17.929V20.1111L6.88957 20.5678C6.38314 20.6241 6 21.0522 6 21.5617V22H18V21.5617C18 21.0522 17.6169 20.6241 17.1104 20.5678L13 20.1111V17.9293C15.3168 17.5982 17.2678 16.1327 18.2722 14.1134C20.1673 13.3432 21.4392 11.926 21.789 11.2387C21.8159 11.1859 21.8396 11.1394 21.8602 11.1L22 10.8333V5C22 4.44772 21.5523 4 21 4H19.001V3C19.001 2.44772 18.5533 2 18.001 2H5.51711ZM20.6023 10.1717C20.3394 10.6798 19.7587 11.4807 18.9128 12.1143C18.9708 11.7514 19.001 11.3792 19.001 11V6H20.6023V10.1717Z" fill="#546278"/>
</svg>