<svg width="24" height="24" viewBox="0 0 24 24" fill="none" xmlns="http://www.w3.org/2000/svg">
<path d="M14 2H6C5.46957 2 4.96086 2.21071 4.58579 2.58579C4.21071 2.96086 4 3.46957 4 4V20C4 20.5304 4.21071 21.0391 4.58579 21.4142C4.96086 21.7893 5.46957 22 6 22H18C18.5304 22 19.0391 21.7893 19.4142 21.4142C19.7893 21.0391 20 20.5304 20 20V8L14 2Z" fill="#2B65D9" stroke="#2B65D9" stroke-width="2" stroke-linecap="round" stroke-linejoin="round"/>
<path d="M15 2V1H13V2H15ZM14 8H13C13 8.55228 13.4477 9 14 9V8ZM20 9H21V7H20V9ZM13 2V8H15V2H13ZM14 9H20V7H14V9Z" fill="white"/>
<path d="M16 13H8" stroke="white" stroke-width="2" stroke-linecap="round" stroke-linejoin="round"/>
<path d="M16 17H8" stroke="white" stroke-width="2" stroke-linecap="round" stroke-linejoin="round"/>
<path d="M10 9H9H8" stroke="white" stroke-width="2" stroke-linecap="round" stroke-linejoin="round"/>
</svg>
