<svg width="24" height="24" viewBox="0 0 24 24" fill="none" xmlns="http://www.w3.org/2000/svg">
<path d="M7.5 1C6.62749 1 5.7932 1.17555 5.0332 1.48828L3.64453 2.05859L7.58594 6L6 7.58594L2.05859 3.64453L1.48828 5.0332C1.17555 5.7932 1 6.62749 1 7.5C1 11.0783 3.92173 14 7.5 14C8.11867 14 8.68096 13.8166 9.24805 13.6543L18.1562 22.5605C18.7344 23.1387 19.6992 23.1387 20.2773 22.5605L22.5625 20.2734C23.1365 19.6965 23.1376 18.7313 22.5605 18.1543L13.6543 9.24805C13.8164 8.681 14 8.11865 14 7.5C14 3.92173 11.0783 1 7.5 1ZM7.5 3C9.99773 3 12 5.00227 12 7.5C12 8.10695 11.878 8.68181 11.6602 9.21289L11.4082 9.83008L20.793 19.2148L19.2168 20.793L9.83008 11.4062L9.21289 11.6602C8.68251 11.8785 8.10813 12 7.5 12C5.00227 12 3 9.99773 3 7.5C3 7.47441 3.01324 7.45321 3.01367 7.42773L6 10.4141L10.4141 6L7.42773 3.01367C7.45321 3.01324 7.47441 3 7.5 3Z" fill="#546278"/>
</svg>
