<svg width="24" height="24" viewBox="0 0 24 24" fill="none" xmlns="http://www.w3.org/2000/svg">
<path d="M1.718 5.90095L5.66985 9.3755L6.02199 9.68511L6.35355 9.35355L9.35355 6.35355L9.68511 6.02199L9.3755 5.66985L5.90095 1.718C6.41022 1.57646 6.94678 1.5 7.5 1.5C10.8021 1.5 13.5 4.19787 13.5 7.5C13.5 7.97985 13.3728 8.42015 13.2231 8.93841C13.2068 8.99485 13.1902 9.05221 13.1735 9.11065L13.0927 9.39355L13.3007 9.6016L22.207 18.5079L22.207 18.5079C22.5882 18.889 22.5883 19.5379 22.2087 19.9202C22.2085 19.9204 22.2082 19.9206 22.208 19.9208L19.9238 22.207C19.9237 22.207 19.9237 22.2071 19.9236 22.2071C19.5407 22.5899 18.8927 22.5898 18.5098 22.207L18.5098 22.207L9.60156 13.3007L9.39343 13.0926L9.11047 13.1736C9.0533 13.19 8.99715 13.2062 8.9419 13.2222C8.4223 13.3724 7.98096 13.5 7.5 13.5C4.19787 13.5 1.5 10.8021 1.5 7.5C1.5 6.94678 1.57646 6.41022 1.718 5.90095Z" fill="white" stroke="white"/>
</svg>
