<svg width="24" height="24" viewBox="0 0 24 24" fill="none" xmlns="http://www.w3.org/2000/svg">
<path fill-rule="evenodd" clip-rule="evenodd" d="M17 3H15V9H17V3ZM15 1C13.8954 1 13 1.89543 13 3V9V11H15H17H19V9V3C19 1.89543 18.1046 1 17 1H15ZM9 6H7V9H9V6ZM7 4C5.89543 4 5 4.89543 5 6V9V11H7H9H11V9V6C11 4.89543 10.1046 4 9 4H7ZM7 16H9V20H7V16ZM5 14H7H9H11V16V20C11 21.1046 10.1046 22 9 22H7C5.89543 22 5 21.1046 5 20V16V14ZM17 16H15V18H17V16ZM15 14H13V16V18C13 19.1046 13.8954 20 15 20H17C18.1046 20 19 19.1046 19 18V16V14H17H15ZM1.5 12C1.22386 12 1 12.2239 1 12.5C1 12.7761 1.22386 13 1.5 13H22.5C22.7761 13 23 12.7761 23 12.5C23 12.2239 22.7761 12 22.5 12H1.5Z" fill="#323232"/>
</svg>
