<svg width="24" height="24" viewBox="0 0 24 24" fill="none" xmlns="http://www.w3.org/2000/svg">
<path d="M7 9C7 8.44772 7.44772 8 8 8H10H16C16.5523 8 17 8.44772 17 9V11C17 13.7614 14.7614 16 12 16C9.23858 16 7 13.7614 7 11V9Z" stroke="black" stroke-width="2"/>
<path d="M11 17H13V19C13 19.5523 12.5523 20 12 20C11.4477 20 11 19.5523 11 19V17Z" stroke="black" stroke-width="2"/>
<path d="M15 4C15 3.44772 14.5523 3 14 3C13.4477 3 13 3.44772 13 4H15ZM15 7V4H13V7H15Z" fill="black"/>
<path d="M11 4C11 3.44772 10.5523 3 10 3C9.44772 3 9 3.44772 9 4H11ZM11 7V4H9V7H11Z" fill="black"/>
</svg>
