<svg width="192" height="107" viewBox="0 0 192 107" fill="none" xmlns="http://www.w3.org/2000/svg">
<path d="M191.5 86.5L180.035 85.1293L184.58 95.7439L191.5 86.5ZM158.5 0L147.727 4.1555L156.712 11.4077L158.5 0ZM1.69569 81.8333L1.25779 82.7323L1.69569 81.8333ZM1.891 80.883L1.95664 81.8809L1.891 80.883ZM152.923 5.18133C151.836 6.45169 150.734 7.71109 149.615 8.95911L151.105 10.2937C152.233 9.03423 153.346 7.76332 154.442 6.48137L152.923 5.18133ZM146.222 12.6599C145.079 13.8788 143.919 15.0861 142.745 16.2813L144.171 17.6832C145.357 16.4769 146.527 15.2585 147.681 14.0284L146.222 12.6599ZM139.184 19.8212C137.985 20.9858 136.771 22.138 135.542 23.2774L136.902 24.7441C138.143 23.5941 139.368 22.4312 140.578 21.2558L139.184 19.8212ZM131.821 26.6476C130.569 27.7549 129.303 28.849 128.022 29.9298L129.311 31.4585C130.604 30.3677 131.883 29.2632 133.146 28.1457L131.821 26.6476ZM124.146 33.1213C122.845 34.168 121.528 35.2011 120.198 36.2201L121.414 37.808C122.757 36.7793 124.086 35.7365 125.4 34.6799L124.146 33.1213ZM116.177 39.2247C114.827 40.2085 113.463 41.1781 112.086 42.133L113.225 43.7768C114.616 42.8127 115.992 41.834 117.355 40.8409L116.177 39.2247ZM107.927 44.9433C106.532 45.8617 105.124 46.7653 103.702 47.6538L104.762 49.3499C106.197 48.4529 107.619 47.5408 109.027 46.6137L107.927 44.9433ZM99.4133 50.2628C97.9767 51.1134 96.5268 51.9489 95.0637 52.7688L96.0413 54.5135C97.5184 53.6859 98.9821 52.8425 100.432 51.9837L99.4133 50.2628ZM90.6552 55.1703C89.1797 55.9514 87.6914 56.7168 86.1902 57.4662L87.0835 59.2556C88.5989 58.4991 90.1014 57.7264 91.5909 56.9379L90.6552 55.1703ZM81.6713 59.6551C80.1606 60.3648 78.6375 61.0584 77.1019 61.7357L77.909 63.5656C79.4591 62.882 80.9967 62.1817 82.5217 61.4653L81.6713 59.6551ZM72.4866 63.7062C70.9451 64.3429 69.3914 64.9633 67.8258 65.5671L68.5454 67.4332C70.1257 66.8237 71.694 66.1975 73.2501 65.5548L72.4866 63.7062ZM63.1218 67.3178C61.552 67.8811 59.9705 68.4279 58.3774 68.9578L59.0087 70.8555C60.6165 70.3207 62.2128 69.7688 63.7973 69.2002L63.1218 67.3178ZM53.5951 70.4869C52.0003 70.9764 50.3944 71.4492 48.7773 71.9049L49.3199 73.8299C50.9518 73.37 52.5725 72.8929 54.182 72.3988L53.5951 70.4869ZM43.9267 73.2119C42.3123 73.6271 40.6872 74.0255 39.0515 74.4067L39.5054 76.3545C41.156 75.9698 42.7958 75.5679 44.4248 75.1489L43.9267 73.2119ZM34.1516 75.4905C32.5204 75.8321 30.8789 76.1568 29.2272 76.4643L29.5933 78.4305C31.2596 78.1203 32.9157 77.7927 34.5615 77.448L34.1516 75.4905ZM24.2804 77.3288C22.6346 77.5977 20.9789 77.8497 19.3134 78.0846L19.5927 80.065C21.2726 79.8281 22.9427 79.5739 24.6029 79.3026L24.2804 77.3288ZM14.3281 78.7326C12.6748 78.9294 11.0121 79.1094 9.33996 79.2724L9.53397 81.2629C11.2202 81.0986 12.897 80.9171 14.5645 80.7186L14.3281 78.7326ZM4.33934 79.7066C3.50362 79.7704 2.66563 79.8299 1.82537 79.8852L1.95664 81.8809C2.80384 81.8251 3.64878 81.7651 4.49145 81.7008L4.33934 79.7066ZM1.82537 79.8852C1.48326 79.9077 1.17345 80.0399 0.931237 80.2524L2.25024 81.7558C2.16214 81.8331 2.05466 81.8744 1.95664 81.8809L1.82537 79.8852ZM0.563471 82.039C0.705843 82.3358 0.945699 82.5803 1.25779 82.7323L2.13358 80.9342C2.2244 80.9785 2.31271 81.0614 2.36667 81.1739L0.563471 82.039ZM1.25779 82.7323C1.99725 83.0925 2.73775 83.449 3.47927 83.8018L4.33859 81.9958C3.60259 81.6456 2.86758 81.2917 2.13358 80.9342L1.25779 82.7323ZM7.94539 85.8765C9.44262 86.5551 10.944 87.2188 12.4493 87.8671L13.2405 86.0302C11.7467 85.3869 10.2569 84.7284 8.77109 84.0549L7.94539 85.8765ZM16.9931 89.7725C18.5158 90.3938 20.0426 90.9995 21.5733 91.5893L22.2924 89.723C20.7739 89.1379 19.2594 88.5371 17.7487 87.9207L16.9931 89.7725ZM26.1882 93.3148C27.7338 93.875 29.2833 94.4191 30.8368 94.9468L31.48 93.053C29.9395 92.5298 28.4028 91.9902 26.8698 91.4345L26.1882 93.3148ZM35.5179 96.4831C37.085 96.9795 38.6559 97.4591 40.2306 97.9218L40.7943 96.0029C39.2331 95.5442 37.6756 95.0687 36.1219 94.5765L35.5179 96.4831ZM44.974 99.2607C46.5606 99.6902 48.1509 100.103 49.7449 100.497L50.2257 98.556C48.6458 98.1647 47.0694 97.756 45.4967 97.3302L44.974 99.2607ZM54.5416 101.63C56.1449 101.99 57.7518 102.332 59.3623 102.656L59.757 100.696C58.1611 100.374 56.5687 100.035 54.9798 99.6784L54.5416 101.63ZM64.2051 103.575C65.8225 103.863 67.4435 104.133 69.0678 104.384L69.3738 102.408C67.7644 102.159 66.1584 101.891 64.5558 101.606L64.2051 103.575ZM73.9474 105.083C75.5754 105.297 77.2069 105.493 78.8416 105.669L79.0567 103.681C77.4372 103.506 75.821 103.312 74.2081 103.1L73.9474 105.083ZM83.7485 106.143C85.3843 106.281 87.0234 106.401 88.6656 106.502L88.7881 104.506C87.1614 104.406 85.5378 104.287 83.9174 104.15L83.7485 106.143ZM93.5907 106.746C95.2305 106.809 96.8734 106.852 98.5193 106.876L98.5483 104.876C96.9181 104.852 95.2908 104.81 93.6666 104.748L93.5907 106.746ZM103.448 106.89C105.088 106.875 106.73 106.841 108.376 106.788L108.311 104.789C106.681 104.842 105.054 104.875 103.43 104.89L103.448 106.89ZM113.301 106.572C114.939 106.48 116.579 106.37 118.222 106.24L118.064 104.246C116.437 104.375 114.812 104.484 113.19 104.575L113.301 106.572ZM123.134 105.794C124.763 105.627 126.394 105.441 128.028 105.236L127.779 103.251C126.16 103.455 124.544 103.639 122.93 103.805L123.134 105.794ZM132.91 104.565C134.53 104.324 136.153 104.063 137.778 103.783L137.438 101.813C135.828 102.09 134.221 102.348 132.616 102.587L132.91 104.565ZM142.628 102.892C144.235 102.578 145.845 102.245 147.456 101.893L147.029 99.9388C145.432 100.288 143.837 100.618 142.245 100.929L142.628 102.892ZM152.255 100.789C153.845 100.405 155.437 100.002 157.032 99.5806L156.52 97.647C154.94 98.065 153.362 98.4642 151.786 98.8448L152.255 100.789ZM161.785 98.2692C163.358 97.817 164.934 97.3463 166.511 96.857L165.919 94.9468C164.355 95.432 162.792 95.8986 161.232 96.347L161.785 98.2692ZM171.196 95.351C172.746 94.8349 174.298 94.3008 175.852 93.7484L175.182 91.8639C173.641 92.4118 172.102 92.9415 170.564 93.4533L171.196 95.351ZM180.481 92.051C182.011 91.4727 183.543 90.8768 185.076 90.2629L184.332 88.4062C182.811 89.0153 181.292 89.6065 179.774 90.1802L180.481 92.051Z" fill="white"/>
</svg>
