<svg width="276" height="39" viewBox="0 0 276 39" fill="none" xmlns="http://www.w3.org/2000/svg">
<path d="M51.3409 7.72727V23.9545C51.3295 26.1932 50.3295 27.375 48.5114 27.375C46.7955 27.375 45.6818 26.3068 45.6477 24.4545H40.75C40.7273 29.1023 44.0455 31.3182 48.2614 31.3182C52.9773 31.3182 56.1932 28.4659 56.2045 23.9545V7.72727H51.3409ZM71.375 23.5682C71.3864 25.9091 69.7841 27.1364 68.0455 27.1364C66.2159 27.1364 65.0341 25.8523 65.0227 23.7955V13.5455H60.1818V24.6591C60.1932 28.7386 62.5795 31.2273 66.0909 31.2273C68.7159 31.2273 70.6023 29.875 71.3864 27.8295H71.5682V31H76.2159V13.5455H71.375V23.5682ZM84.929 20.9091C84.9403 18.6591 86.2812 17.3409 88.2358 17.3409C90.179 17.3409 91.3494 18.6136 91.3381 20.75V31H96.179V19.8864C96.179 15.8182 93.7926 13.3182 90.1562 13.3182C87.5653 13.3182 85.6903 14.5909 84.9062 16.625H84.7017V13.5455H80.0881V31H84.929V20.9091ZM99.9943 31H104.835V13.5455H99.9943V31ZM102.426 11.2955C103.869 11.2955 105.051 10.1932 105.051 8.84091C105.051 7.5 103.869 6.39773 102.426 6.39773C100.994 6.39773 99.8125 7.5 99.8125 8.84091C99.8125 10.1932 100.994 11.2955 102.426 11.2955ZM116.599 31.3409C121.895 31.3409 125.19 27.7159 125.19 22.3409C125.19 16.9318 121.895 13.3182 116.599 13.3182C111.304 13.3182 108.009 16.9318 108.009 22.3409C108.009 27.7159 111.304 31.3409 116.599 31.3409ZM116.622 27.5909C114.179 27.5909 112.929 25.3523 112.929 22.3068C112.929 19.2614 114.179 17.0114 116.622 17.0114C119.02 17.0114 120.27 19.2614 120.27 22.3068C120.27 25.3523 119.02 27.5909 116.622 27.5909ZM128.338 31H133.179V21.125C133.179 18.9773 134.747 17.5 136.884 17.5C137.554 17.5 138.474 17.6136 138.929 17.7614V13.4659C138.497 13.3636 137.895 13.2955 137.406 13.2955C135.452 13.2955 133.849 14.4318 133.213 16.5909H133.031V13.5455H128.338V31ZM148.043 11.7841H155.168V31H160.031V11.7841H167.156V7.72727H148.043V11.7841ZM168.401 31H173.241V21.125C173.241 18.9773 174.81 17.5 176.946 17.5C177.616 17.5 178.537 17.6136 178.991 17.7614V13.4659C178.56 13.3636 177.957 13.2955 177.469 13.2955C175.514 13.2955 173.912 14.4318 173.276 16.5909H173.094V13.5455H168.401V31ZM185.972 31.3295C188.551 31.3295 190.222 30.2045 191.074 28.5795H191.21V31H195.801V19.2273C195.801 15.0682 192.278 13.3182 188.392 13.3182C184.21 13.3182 181.46 15.3182 180.79 18.5L185.267 18.8636C185.597 17.7045 186.631 16.8523 188.369 16.8523C190.017 16.8523 190.96 17.6818 190.96 19.1136V19.1818C190.96 20.3068 189.767 20.4545 186.733 20.75C183.278 21.0682 180.176 22.2273 180.176 26.125C180.176 29.5795 182.642 31.3295 185.972 31.3295ZM187.358 27.9886C185.869 27.9886 184.801 27.2955 184.801 25.9659C184.801 24.6023 185.926 23.9318 187.631 23.6932C188.688 23.5455 190.415 23.2955 190.994 22.9091V24.7614C190.994 26.5909 189.483 27.9886 187.358 27.9886ZM204.398 20.9091C204.409 18.6591 205.75 17.3409 207.705 17.3409C209.648 17.3409 210.818 18.6136 210.807 20.75V31H215.648V19.8864C215.648 15.8182 213.261 13.3182 209.625 13.3182C207.034 13.3182 205.159 14.5909 204.375 16.625H204.17V13.5455H199.557V31H204.398V20.9091ZM227.349 31.3409C231.997 31.3409 234.918 28.6136 235.145 24.6023H230.577C230.293 26.4659 229.065 27.5114 227.406 27.5114C225.145 27.5114 223.679 25.6136 223.679 22.2727C223.679 18.9773 225.156 17.0909 227.406 17.0909C229.179 17.0909 230.315 18.2614 230.577 20H235.145C234.94 15.9659 231.884 13.3182 227.327 13.3182C222.031 13.3182 218.759 16.9886 218.759 22.3409C218.759 27.6477 221.974 31.3409 227.349 31.3409ZM243.085 20.9091C243.097 18.6591 244.472 17.3409 246.449 17.3409C248.415 17.3409 249.574 18.6023 249.562 20.75V31H254.403V19.8864C254.415 15.7955 252.006 13.3182 248.369 13.3182C245.722 13.3182 243.949 14.5682 243.153 16.625H242.949V7.72727H238.244V31H243.085V20.9091ZM266.168 31.3409C270.486 31.3409 273.395 29.2386 274.077 26L269.599 25.7045C269.111 27.0341 267.861 27.7273 266.247 27.7273C263.827 27.7273 262.293 26.125 262.293 23.5227V23.5114H274.179V22.1818C274.179 16.25 270.588 13.3182 265.974 13.3182C260.838 13.3182 257.509 16.9659 257.509 22.3523C257.509 27.8864 260.793 31.3409 266.168 31.3409ZM262.293 20.5114C262.395 18.5227 263.906 16.9318 266.054 16.9318C268.156 16.9318 269.611 18.4318 269.622 20.5114H262.293Z" fill="#323232"/>
<circle cx="16" cy="20" r="14.25" fill="url(#paint0_linear)" stroke="#FFE2A8" stroke-width="2.5" stroke-linecap="round"/>
<path d="M16.8889 10L8 22H16L15.1111 30L24 18H16L16.8889 10Z" fill="#FFEFCE"/>
<defs>
<linearGradient id="paint0_linear" x1="16" y1="7" x2="16" y2="33" gradientUnits="userSpaceOnUse">
<stop stop-color="#FFCE6D"/>
<stop offset="1" stop-color="#E79A00"/>
</linearGradient>
</defs>
</svg>
