<svg width="100" height="40" viewBox="0 0 100 40" fill="none" xmlns="http://www.w3.org/2000/svg">
<g clip-path="url(#clip0)">
<path d="M52.7416 9.18018H48.6494V32.1689H52.7416V9.18018Z" fill="white"/>
<path d="M80.9418 9.18018V31.2837L76.8496 33.6474V9.18018H80.9418Z" fill="white"/>
<path d="M69.8542 7.55025V17.33C68.5878 15.6998 66.7609 14.2367 63.8644 14.2367C59.6739 14.2367 55.7148 17.5308 55.7148 23.3505V23.4181C55.7148 29.2378 59.7384 32.5318 63.8644 32.5318C66.7271 32.5318 68.5581 31.0687 69.8542 29.2378V32.1691H73.9464V5.18652L69.8542 7.55025ZM69.9187 23.4181C69.9187 23.7398 69.8962 24.0533 69.8542 24.3556C69.4536 27.1916 67.264 29.041 64.8286 29.041C62.1021 29.041 59.7722 26.8095 59.7722 23.4181V23.3505C59.7722 19.8566 62.0673 17.7275 64.8286 17.7275C67.264 17.7275 69.4577 19.5503 69.8542 22.4058C69.8962 22.708 69.9187 23.0257 69.9187 23.3515V23.4181Z" fill="white"/>
<path d="M83.0293 23.451V23.3844C83.0293 18.3608 86.5887 14.2358 91.6123 14.2358C97.2015 14.2358 100.03 18.6272 100.03 23.6846C100.03 24.0504 99.9965 24.4162 99.9638 24.8158H87.0549C87.4873 27.6764 89.517 29.2737 92.1113 29.2737C94.0744 29.2737 95.4719 28.5422 96.8685 27.1774L99.2312 29.2737C97.5672 31.2696 95.2721 32.5678 92.0447 32.5678C86.9555 32.5668 83.0293 28.8731 83.0293 23.451ZM96.0375 22.1528C95.7721 19.5576 94.2414 17.5289 91.5795 17.5289C89.1174 17.5289 87.3869 19.4254 87.0211 22.1528H96.0375Z" fill="white"/>
<path opacity="0.3" fill-rule="evenodd" clip-rule="evenodd" d="M13.6988 0.102539V31.7849H0.0860656L0 31.7357V8.01135L0.522541 7.7091L13.6988 0.102539Z" fill="white"/>
<path opacity="0.3" fill-rule="evenodd" clip-rule="evenodd" d="M18.0859 39.6516V7.96924H31.6986L31.7847 8.01842V31.7428L31.2622 32.0451L18.0859 39.6516Z" fill="white"/>
</g>
<defs>
<clipPath id="clip0">
<rect width="100" height="40" fill="white"/>
</clipPath>
</defs>
</svg>
