<svg width="86" height="37" viewBox="0 0 86 37" fill="none" xmlns="http://www.w3.org/2000/svg"><path fill-rule="evenodd" clip-rule="evenodd" d="M10.958 1.71v27.12H0V8.284L10.958 1.71zM13.15 35.46V8.175h10.957v20.711L13.15 35.46z" fill="#fff"></path><path fill="#fff" d="M36.191 11.355h3.506v17.532h-3.506z"></path><path fill="#fff" d="M36.191 11.355h3.506v17.532h-3.506zM59.555 20.065c0 4.843-3.954 8.77-8.832 8.77s-8.832-3.927-8.832-8.77 3.954-8.77 8.832-8.77 8.832 3.927 8.832 8.77zm-14.132 0c0 2.906 2.373 5.261 5.3 5.261 2.927 0 5.3-2.355 5.3-5.261s-2.373-5.262-5.3-5.262c-2.927 0-5.3 2.356-5.3 5.262z"></path><path d="M56.022 6.22h3.533V28.93h-3.533V6.22zM61.7 6.126h3.533v22.711H61.7V6.126zM84.922 21.486a8.825 8.825 0 1 0-1.376 3.534l-2.938-1.959a5.295 5.295 0 1 1 .826-2.12l3.488.545z" fill="#fff"></path><path d="M69.075 18.428H84.69l.22 3.055H69.076v-3.055z" fill="#fff"></path></svg>