<?xml version="1.0" encoding="iso-8859-1"?>
<!-- Generator: Adobe Illustrator 19.0.0, SVG Export Plug-In . SVG Version: 6.00 Build 0)  -->
<svg version="1.1" id="Capa_1" xmlns="http://www.w3.org/2000/svg" xmlns:xlink="http://www.w3.org/1999/xlink" x="0px" y="0px"
	 viewBox="0 0 468.293 468.293" style="enable-background:new 0 0 468.293 468.293;" xml:space="preserve">
<path style="fill:#F6C358;" d="M392.321,327.514v52.604c0,11.528-8.491,22.367-23.54,31.894c-2.14,1.312-4.418,2.692-6.903,3.935
	c0,0-0.069,0-0.069,0.069c-2.14,1.174-4.418,2.279-6.834,3.452c-8.077,3.797-17.397,7.318-27.614,10.424
	c-2.278,0.691-4.557,1.38-6.903,2.071h-0.069c-2.209,0.621-4.487,1.242-6.834,1.864c-8.698,2.209-17.88,4.21-27.614,5.868
	c-2.278,0.414-4.556,0.828-6.903,1.174h-0.069c-2.278,0.345-4.487,0.758-6.834,1.035c-8.905,1.311-18.087,2.348-27.614,3.175
	c-2.278,0.207-4.557,0.415-6.903,0.553h-0.069c-2.278,0.207-4.487,0.346-6.834,0.484c-8.974,0.551-18.225,0.897-27.614,0.966
	c-2.278,0.069-4.556,0.069-6.903,0.069h-0.069c-2.347,0-4.556,0-6.834-0.069c-9.389-0.069-18.639-0.415-27.614-0.966
	c-2.347-0.138-4.625-0.276-6.903-0.484h-0.069c-2.347-0.138-4.556-0.346-6.834-0.553c-9.527-0.828-18.708-1.864-27.614-3.175
	c-2.347-0.276-4.625-0.69-6.903-1.035h-0.069c-2.347-0.346-4.556-0.76-6.834-1.174c-9.734-1.658-18.915-3.659-27.614-5.868
	c-2.347-0.622-4.694-1.243-6.903-1.864h-0.069c-2.347-0.691-4.556-1.38-6.834-2.071c-10.217-3.106-19.537-6.627-27.614-10.424
	c-2.416-1.104-4.694-2.278-6.903-3.521c0,0-0.069,0-0.069-0.069c-2.416-1.173-4.694-2.484-6.834-3.865
	C8.56,402.554,0,391.646,0,380.118v-52.604H392.321z"/>
<path style="fill:#FCD462;" d="M392.321,327.514c0,11.529-8.491,22.367-23.54,31.756c-2.209,1.449-4.487,2.83-6.973,4.074
	c-2.14,1.242-4.418,2.346-6.834,3.52c-8.077,3.797-17.397,7.249-27.614,10.424c-2.278,0.69-4.557,1.381-6.903,2.07h-0.069
	c-2.209,0.622-4.487,1.244-6.834,1.864c-8.698,2.21-17.88,4.212-27.614,5.869c-2.278,0.415-4.556,0.828-6.903,1.173h-0.069
	c-2.278,0.346-4.487,0.76-6.834,1.036c-8.905,1.312-18.087,2.347-27.614,3.176c-2.278,0.207-4.557,0.414-6.903,0.552h-0.069
	c-2.278,0.206-4.487,0.345-6.834,0.483c-8.974,0.553-18.225,0.898-27.614,0.967c-2.278,0.069-4.556,0.069-6.903,0.069h-0.069
	c-2.347,0-4.556,0-6.834-0.069c-9.389-0.068-18.639-0.414-27.614-0.967c-2.347-0.138-4.625-0.276-6.903-0.483h-0.069
	c-2.347-0.138-4.556-0.345-6.834-0.552c-9.527-0.829-18.708-1.864-27.614-3.176c-2.347-0.276-4.625-0.69-6.903-1.036h-0.069
	c-2.347-0.345-4.556-0.758-6.834-1.173c-9.734-1.657-18.915-3.659-27.614-5.869c-2.347-0.62-4.694-1.242-6.903-1.864h-0.069
	c-2.347-0.689-4.556-1.38-6.834-2.07c-10.217-3.107-19.537-6.627-27.614-10.424c-2.416-1.105-4.694-2.278-6.903-3.52
	c0,0-0.069,0-0.069-0.069c-2.416-1.175-4.694-2.486-6.834-3.866C8.56,349.95,0,339.043,0,327.514
	c0-37.002,87.88-67.033,196.195-67.033S392.321,290.512,392.321,327.514z"/>
<path style="fill:#F6C358;" d="M195.592,375.815c-1.954,0-3.811-0.003-5.726-0.061c-9.034-0.07-17.982-0.384-27.04-0.939
	c-2.207-0.131-4.293-0.256-6.378-0.442l-0.835-0.076h-0.326c-1.848-0.119-3.61-0.284-5.415-0.448
	c-9.942-0.866-18.613-1.863-26.887-3.079c-1.905-0.232-3.229-0.451-4.543-0.665l-3.723-0.573c-1.387-0.226-4.912-0.872-4.912-0.872
	c-8.899-1.512-17.454-3.329-26.366-5.591c-2.064-0.549-4.314-1.143-6.436-1.741l-6.552-1.97c-7.75-2.357-14.893-4.951-21.28-7.732
	v-0.058l-10.393-5.067l-3.36-1.89h-0.137c-0.503-0.302-1.012-0.616-1.518-0.942c-11.146-7.009-15.034-13.064-15.034-16.155
	c0-17.027,67.375-48.299,177.463-48.299c110.043,0,177.393,31.271,177.393,48.299c0,3.082-3.857,9.085-14.723,15.863
	c-2.29,1.497-3.902,2.445-5.442,3.216l-1.027,0.555c-1.704,0.991-3.527,1.857-5.445,2.79c-6.835,3.213-15.317,6.405-25.152,9.463
	l-6.485,1.927c-2.122,0.595-4.308,1.192-6.561,1.79c-8.72,2.21-17.271,4.027-25.954,5.506c-1.848,0.335-3.555,0.646-5.268,0.921
	l-3.793,0.585c-1.244,0.204-2.485,0.415-3.78,0.567c-8.835,1.29-17.506,2.287-27.064,3.119c-1.979,0.18-3.899,0.354-5.86,0.482
	l-1.162,0.076c-2.082,0.186-4.107,0.311-6.253,0.436c-9.113,0.561-18.061,0.875-26.655,0.936c-2.338,0.067-4.299,0.07-6.28,0.07
	C196.522,375.815,195.769,375.815,195.592,375.815z"/>
<g>
	<path style="fill:#DC8744;" d="M37.416,366.863v52.604c-2.416-1.104-4.694-2.278-6.903-3.521c0,0-0.069,0-0.069-0.069
		c-2.416-1.173-4.694-2.484-6.834-3.865v-52.604c2.14,1.38,4.418,2.692,6.834,3.866c0,0.069,0.069,0.069,0.069,0.069
		C32.722,364.586,35,365.759,37.416,366.863z"/>
	<path style="fill:#DC8744;" d="M78.837,381.222v52.605c-2.347-0.622-4.694-1.243-6.903-1.864h-0.069
		c-2.347-0.691-4.556-1.38-6.834-2.071v-52.604c2.278,0.69,4.487,1.381,6.834,2.07h0.069
		C74.143,379.98,76.49,380.602,78.837,381.222z"/>
	<path style="fill:#DC8744;" d="M120.257,389.3v52.604c-2.347-0.276-4.625-0.69-6.903-1.035h-0.069
		c-2.347-0.346-4.556-0.76-6.834-1.174v-52.604c2.278,0.415,4.487,0.828,6.834,1.173h0.069
		C115.632,388.609,117.91,389.024,120.257,389.3z"/>
	<path style="fill:#DC8744;" d="M161.678,393.511v52.605c-2.347-0.138-4.625-0.276-6.903-0.484h-0.069
		c-2.347-0.138-4.556-0.346-6.834-0.553v-52.603c2.278,0.207,4.487,0.414,6.834,0.552h0.069
		C157.053,393.234,159.33,393.372,161.678,393.511z"/>
	<path style="fill:#DC8744;" d="M203.098,394.477v52.604c-2.278,0.069-4.556,0.069-6.903,0.069h-0.069c-2.347,0-4.556,0-6.834-0.069
		v-52.604c2.278,0.069,4.487,0.069,6.834,0.069h0.069C198.542,394.546,200.82,394.546,203.098,394.477z"/>
	<path style="fill:#DC8744;" d="M244.519,392.476v52.603c-2.278,0.207-4.557,0.415-6.903,0.553h-0.069
		c-2.278,0.207-4.487,0.346-6.834,0.484v-52.605c2.347-0.138,4.556-0.276,6.834-0.483h0.069
		C239.962,392.889,242.24,392.683,244.519,392.476z"/>
	<path style="fill:#DC8744;" d="M285.939,387.091v52.604c-2.278,0.414-4.556,0.828-6.903,1.174h-0.069
		c-2.278,0.345-4.487,0.758-6.834,1.035V389.3c2.347-0.276,4.556-0.69,6.834-1.036h0.069
		C281.383,387.919,283.661,387.505,285.939,387.091z"/>
	<path style="fill:#DC8744;" d="M327.36,377.288v52.604c-2.278,0.691-4.557,1.38-6.903,2.071h-0.069
		c-2.209,0.621-4.487,1.242-6.834,1.864v-52.605c2.347-0.62,4.625-1.242,6.834-1.864h0.069
		C322.803,378.669,325.081,377.978,327.36,377.288z"/>
	<path style="fill:#DC8744;" d="M368.78,359.27v52.742c-2.14,1.312-4.418,2.692-6.903,3.935c0,0-0.069,0-0.069,0.069
		c-2.14,1.174-4.418,2.279-6.834,3.452v-52.604c2.416-1.174,4.694-2.278,6.834-3.52C364.293,362.1,366.571,360.719,368.78,359.27z"
		/>
</g>
<path style="fill:#F6C358;" d="M468.293,247.735v52.604c0,11.528-8.491,22.367-23.54,31.894c-2.14,1.312-4.418,2.692-6.903,3.935
	c0,0-0.069,0-0.069,0.069c-2.14,1.174-4.418,2.279-6.834,3.452c-8.077,3.797-17.397,7.318-27.614,10.424
	c-2.278,0.691-4.556,1.38-6.903,2.071h-0.069c-2.209,0.621-4.487,1.242-6.834,1.864c-8.698,2.209-17.88,4.21-27.614,5.868
	c-2.278,0.414-4.556,0.828-6.903,1.174h-0.069c-2.278,0.345-4.487,0.758-6.834,1.035c-8.905,1.311-18.087,2.348-27.614,3.175
	c-2.278,0.207-4.556,0.415-6.903,0.553h-0.069c-2.278,0.207-4.487,0.346-6.834,0.484c-8.974,0.551-18.225,0.897-27.614,0.966
	c-2.278,0.069-4.556,0.069-6.903,0.069h-0.069c-2.347,0-4.556,0-6.834-0.069c-9.389-0.069-18.639-0.415-27.614-0.966
	c-2.347-0.138-4.625-0.276-6.903-0.484h-0.069c-2.347-0.138-4.556-0.346-6.834-0.553c-9.527-0.828-18.708-1.864-27.614-3.175
	c-2.347-0.276-4.625-0.69-6.903-1.035h-0.069c-2.347-0.346-4.556-0.76-6.834-1.174c-9.734-1.658-18.915-3.659-27.614-5.868
	c-2.347-0.622-4.694-1.243-6.903-1.864h-0.069c-2.347-0.691-4.556-1.38-6.834-2.071c-10.217-3.106-19.537-6.627-27.614-10.424
	c-2.416-1.104-4.694-2.278-6.903-3.521c0,0-0.069,0-0.069-0.069c-2.416-1.173-4.694-2.484-6.834-3.865
	c-15.049-9.458-23.61-20.366-23.61-31.894v-52.604H468.293z"/>
<path style="fill:#FCD462;" d="M468.293,247.735c0,11.529-8.491,22.367-23.54,31.756c-2.209,1.449-4.487,2.83-6.973,4.074
	c-2.14,1.242-4.418,2.346-6.834,3.52c-8.077,3.797-17.397,7.249-27.614,10.424c-2.278,0.69-4.556,1.381-6.903,2.071h-0.069
	c-2.209,0.622-4.487,1.244-6.834,1.864c-8.698,2.21-17.88,4.212-27.614,5.869c-2.278,0.415-4.556,0.828-6.903,1.173h-0.069
	c-2.278,0.346-4.487,0.76-6.834,1.036c-8.905,1.312-18.087,2.347-27.614,3.176c-2.278,0.207-4.556,0.414-6.903,0.552h-0.069
	c-2.278,0.206-4.487,0.345-6.834,0.483c-8.974,0.553-18.225,0.898-27.614,0.967c-2.278,0.069-4.556,0.069-6.903,0.069h-0.069
	c-2.347,0-4.556,0-6.834-0.069c-9.389-0.068-18.639-0.414-27.614-0.967c-2.347-0.138-4.625-0.276-6.903-0.483h-0.069
	c-2.347-0.138-4.556-0.345-6.834-0.552c-9.527-0.829-18.708-1.864-27.614-3.176c-2.347-0.276-4.625-0.69-6.903-1.036h-0.069
	c-2.347-0.345-4.556-0.758-6.834-1.173c-9.734-1.657-18.915-3.659-27.614-5.869c-2.347-0.62-4.694-1.242-6.903-1.864h-0.069
	c-2.347-0.689-4.556-1.38-6.834-2.071c-10.217-3.107-19.537-6.627-27.614-10.424c-2.416-1.105-4.694-2.278-6.903-3.52
	c0,0-0.069,0-0.069-0.069c-2.416-1.175-4.694-2.486-6.834-3.866c-15.049-9.458-23.61-20.365-23.61-31.894
	c0-37.002,87.88-67.033,196.195-67.033S468.293,210.732,468.293,247.735z"/>
<path style="fill:#F6C358;" d="M271.553,296.035c-1.948,0-3.805-0.003-5.713-0.061c-9.091-0.07-18.037-0.384-27.034-0.939
	c-2.204-0.131-4.284-0.253-6.36-0.442l-0.848-0.076h-0.348c-1.774-0.113-3.47-0.271-5.201-0.427
	c-10.192-0.89-18.863-1.887-27.085-3.101c-1.912-0.232-3.235-0.451-4.552-0.665l-3.723-0.573c-1.43-0.232-4.918-0.869-4.918-0.869
	c-8.936-1.524-17.488-3.341-26.351-5.595c-2.07-0.549-4.32-1.143-6.436-1.741l-6.546-1.963c-7.78-2.366-14.924-4.963-21.293-7.738
	v-0.073l-10.445-5.076l-3.311-1.863h-0.131c-0.506-0.302-1.015-0.619-1.527-0.948c-11.14-7-15.027-13.055-15.027-16.149
	c0-17.027,67.375-48.302,177.463-48.302c110.043,0,177.393,31.274,177.393,48.302c0,3.079-3.857,9.082-14.723,15.86
	c-2.305,1.506-3.918,2.454-5.442,3.22l-1.012,0.546c-1.707,0.991-3.534,1.86-5.457,2.793c-6.845,3.22-15.32,6.412-25.152,9.466
	c-1.796,0.543-6.488,1.927-6.488,1.927c-2.122,0.595-4.308,1.192-6.561,1.79c-8.677,2.204-17.229,4.021-25.96,5.509
	c-1.838,0.335-3.54,0.643-5.25,0.915l-3.82,0.591c-1.238,0.204-2.476,0.412-3.765,0.564c-8.79,1.287-17.457,2.284-27.064,3.119
	c-1.991,0.183-3.899,0.357-5.851,0.482l-1.195,0.076c-2.076,0.189-4.091,0.311-6.229,0.436c-9.058,0.561-18.003,0.875-26.655,0.936
	c-2.338,0.067-4.299,0.07-6.28,0.07C272.495,296.035,271.732,296.035,271.553,296.035z"/>
<g>
	<path style="fill:#DC8744;" d="M113.388,287.084v52.604c-2.416-1.104-4.694-2.278-6.903-3.521c0,0-0.069,0-0.069-0.069
		c-2.416-1.173-4.694-2.484-6.834-3.865v-52.604c2.14,1.38,4.418,2.692,6.834,3.866c0,0.069,0.069,0.069,0.069,0.069
		C108.694,284.806,110.972,285.979,113.388,287.084z"/>
	<path style="fill:#DC8744;" d="M154.809,301.443v52.605c-2.347-0.622-4.694-1.243-6.903-1.864h-0.069
		c-2.347-0.691-4.556-1.38-6.834-2.071v-52.604c2.278,0.69,4.487,1.381,6.834,2.071h0.069
		C150.115,300.2,152.462,300.822,154.809,301.443z"/>
	<path style="fill:#DC8744;" d="M196.229,309.52v52.604c-2.347-0.276-4.625-0.69-6.903-1.035h-0.069
		c-2.347-0.346-4.556-0.76-6.834-1.174v-52.604c2.278,0.415,4.487,0.828,6.834,1.173h0.069
		C191.604,308.83,193.882,309.244,196.229,309.52z"/>
	<path style="fill:#DC8744;" d="M237.65,313.731v52.605c-2.347-0.138-4.625-0.276-6.903-0.484h-0.069
		c-2.347-0.138-4.556-0.346-6.834-0.553v-52.603c2.278,0.207,4.487,0.414,6.834,0.552h0.069
		C233.025,313.454,235.303,313.593,237.65,313.731z"/>
	<path style="fill:#DC8744;" d="M279.07,314.697v52.604c-2.278,0.069-4.556,0.069-6.903,0.069h-0.069c-2.347,0-4.556,0-6.834-0.069
		v-52.604c2.278,0.069,4.487,0.069,6.834,0.069h0.069C274.514,314.766,276.792,314.766,279.07,314.697z"/>
	<path style="fill:#DC8744;" d="M320.491,312.696v52.603c-2.278,0.207-4.556,0.415-6.903,0.553h-0.069
		c-2.278,0.207-4.487,0.346-6.834,0.484v-52.605c2.347-0.138,4.556-0.276,6.834-0.483h0.069
		C315.934,313.11,318.213,312.903,320.491,312.696z"/>
	<path style="fill:#DC8744;" d="M361.911,307.311v52.604c-2.278,0.414-4.556,0.828-6.903,1.174h-0.069
		c-2.278,0.345-4.487,0.758-6.834,1.035V309.52c2.347-0.276,4.556-0.69,6.834-1.036h0.069
		C357.355,308.139,359.633,307.726,361.911,307.311z"/>
	<path style="fill:#DC8744;" d="M403.332,297.508v52.604c-2.278,0.691-4.556,1.38-6.903,2.071h-0.069
		c-2.209,0.621-4.487,1.242-6.834,1.864v-52.605c2.347-0.62,4.625-1.242,6.834-1.864h0.069
		C398.775,298.889,401.053,298.198,403.332,297.508z"/>
	<path style="fill:#DC8744;" d="M444.752,279.49v52.742c-2.14,1.312-4.418,2.692-6.903,3.935c0,0-0.069,0-0.069,0.069
		c-2.14,1.174-4.418,2.279-6.834,3.452v-52.604c2.416-1.174,4.694-2.278,6.834-3.52C440.265,282.32,442.543,280.94,444.752,279.49z"
		/>
</g>
<path style="fill:#F6C358;" d="M392.321,167.955v52.604c0,11.528-8.491,22.367-23.54,31.894c-2.14,1.312-4.418,2.692-6.903,3.935
	c0,0-0.069,0-0.069,0.069c-2.14,1.174-4.418,2.279-6.834,3.452c-8.077,3.797-17.397,7.318-27.614,10.424
	c-2.278,0.691-4.557,1.38-6.903,2.071h-0.069c-2.209,0.621-4.487,1.242-6.834,1.864c-8.698,2.209-17.88,4.21-27.614,5.868
	c-2.278,0.414-4.556,0.828-6.903,1.174h-0.069c-2.278,0.345-4.487,0.758-6.834,1.035c-8.905,1.311-18.087,2.348-27.614,3.175
	c-2.278,0.207-4.557,0.415-6.903,0.553h-0.069c-2.278,0.207-4.487,0.346-6.834,0.484c-8.974,0.551-18.225,0.897-27.614,0.966
	c-2.278,0.069-4.556,0.069-6.903,0.069h-0.069c-2.347,0-4.556,0-6.834-0.069c-9.389-0.069-18.639-0.415-27.614-0.966
	c-2.347-0.138-4.625-0.276-6.903-0.484h-0.069c-2.347-0.138-4.556-0.346-6.834-0.553c-9.527-0.828-18.708-1.864-27.614-3.175
	c-2.347-0.276-4.625-0.69-6.903-1.035h-0.069c-2.347-0.345-4.556-0.76-6.834-1.174c-9.734-1.658-18.915-3.659-27.614-5.868
	c-2.347-0.622-4.694-1.243-6.903-1.864h-0.069c-2.347-0.691-4.556-1.38-6.834-2.071c-10.217-3.106-19.537-6.627-27.614-10.424
	c-2.416-1.104-4.694-2.278-6.903-3.521c0,0-0.069,0-0.069-0.069c-2.416-1.173-4.694-2.484-6.834-3.865
	C8.56,242.995,0,232.087,0,220.559v-52.604H392.321z"/>
<path style="fill:#FCD462;" d="M392.321,167.955c0,11.529-8.491,22.367-23.54,31.756c-2.209,1.449-4.487,2.83-6.973,4.074
	c-2.14,1.242-4.418,2.346-6.834,3.52c-8.077,3.797-17.397,7.249-27.614,10.424c-2.278,0.69-4.557,1.381-6.903,2.07h-0.069
	c-2.209,0.622-4.487,1.244-6.834,1.864c-8.698,2.21-17.88,4.212-27.614,5.869c-2.278,0.415-4.556,0.828-6.903,1.173h-0.069
	c-2.278,0.346-4.487,0.76-6.834,1.036c-8.905,1.312-18.087,2.347-27.614,3.176c-2.278,0.207-4.557,0.414-6.903,0.552h-0.069
	c-2.278,0.206-4.487,0.345-6.834,0.483c-8.974,0.553-18.225,0.898-27.614,0.967c-2.278,0.069-4.556,0.069-6.903,0.069h-0.069
	c-2.347,0-4.556,0-6.834-0.069c-9.389-0.068-18.639-0.414-27.614-0.967c-2.347-0.138-4.625-0.276-6.903-0.483h-0.069
	c-2.347-0.138-4.556-0.345-6.834-0.552c-9.527-0.829-18.708-1.864-27.614-3.176c-2.347-0.276-4.625-0.69-6.903-1.036h-0.069
	c-2.347-0.345-4.556-0.758-6.834-1.173c-9.734-1.657-18.915-3.659-27.614-5.869c-2.347-0.62-4.694-1.242-6.903-1.864h-0.069
	c-2.347-0.689-4.556-1.38-6.834-2.07c-10.217-3.107-19.537-6.627-27.614-10.424c-2.416-1.105-4.694-2.278-6.903-3.52
	c0,0-0.069,0-0.069-0.069c-2.416-1.175-4.694-2.486-6.834-3.866C8.56,190.391,0,179.484,0,167.955
	c0-37.002,87.88-67.033,196.195-67.033S392.321,130.953,392.321,167.955z"/>
<path style="fill:#F6C358;" d="M195.604,216.254c-1.966,0-3.835-0.003-5.762-0.058c-9.061-0.073-18.009-0.387-27.015-0.939
	c-2.183-0.131-4.268-0.253-6.354-0.445l-0.848-0.076h-0.348c-1.774-0.113-3.47-0.271-5.201-0.427
	c-10.192-0.89-18.863-1.887-27.085-3.101c-1.893-0.232-3.198-0.445-4.497-0.655l-3.774-0.579c-1.387-0.226-4.912-0.872-4.912-0.872
	c-8.912-1.515-17.463-3.332-26.36-5.595c-2.082-0.549-4.326-1.143-6.442-1.738l-6.53-1.966c-7.78-2.366-14.927-4.96-21.302-7.738
	v-0.073L38.72,186.91l-3.308-1.857h-0.125c-0.506-0.302-1.012-0.616-1.521-0.942c-11.146-7.009-15.034-13.064-15.034-16.155
	c0-17.027,67.375-48.302,177.463-48.302c110.043,0,177.393,31.274,177.393,48.302c0,3.079-3.857,9.082-14.723,15.866
	c-2.302,1.5-3.921,2.451-5.442,3.213l-1.012,0.546c-1.707,0.991-3.534,1.86-5.457,2.793c-6.845,3.22-15.32,6.412-25.152,9.466
	l-6.488,1.93c-2.116,0.595-4.293,1.189-6.537,1.78c-8.732,2.22-17.284,4.037-25.979,5.515c-1.887,0.341-3.631,0.662-5.378,0.939
	l-3.729,0.573c-1.229,0.201-2.457,0.409-3.735,0.558c-8.79,1.287-17.457,2.284-27.064,3.119c-1.976,0.18-3.893,0.357-5.848,0.482
	l-1.198,0.076c-2.082,0.189-4.107,0.314-6.253,0.442c-9.037,0.555-17.985,0.869-26.637,0.933c-2.32,0.064-4.293,0.067-6.284,0.067
	C196.516,216.254,195.778,216.254,195.604,216.254z"/>
<g>
	<path style="fill:#DC8744;" d="M37.416,207.304v52.604c-2.416-1.104-4.694-2.278-6.903-3.521c0,0-0.069,0-0.069-0.069
		c-2.416-1.173-4.694-2.484-6.834-3.865v-52.604c2.14,1.38,4.418,2.692,6.834,3.866c0,0.069,0.069,0.069,0.069,0.069
		C32.722,205.026,35,206.199,37.416,207.304z"/>
	<path style="fill:#DC8744;" d="M78.837,221.663v52.605c-2.347-0.622-4.694-1.243-6.903-1.864h-0.069
		c-2.347-0.691-4.556-1.38-6.834-2.071v-52.604c2.278,0.69,4.487,1.381,6.834,2.07h0.069
		C74.143,220.421,76.49,221.043,78.837,221.663z"/>
	<path style="fill:#DC8744;" d="M120.257,229.74v52.604c-2.347-0.276-4.625-0.69-6.903-1.035h-0.069
		c-2.347-0.345-4.556-0.76-6.834-1.174v-52.604c2.278,0.415,4.487,0.828,6.834,1.173h0.069
		C115.632,229.05,117.91,229.465,120.257,229.74z"/>
	<path style="fill:#DC8744;" d="M161.678,233.951v52.605c-2.347-0.138-4.625-0.276-6.903-0.484h-0.069
		c-2.347-0.138-4.556-0.346-6.834-0.553v-52.603c2.278,0.207,4.487,0.414,6.834,0.552h0.069
		C157.053,233.675,159.33,233.813,161.678,233.951z"/>
	<path style="fill:#DC8744;" d="M203.098,234.918v52.604c-2.278,0.069-4.556,0.069-6.903,0.069h-0.069c-2.347,0-4.556,0-6.834-0.069
		v-52.604c2.278,0.069,4.487,0.069,6.834,0.069h0.069C198.542,234.987,200.82,234.987,203.098,234.918z"/>
	<path style="fill:#DC8744;" d="M244.519,232.916v52.603c-2.278,0.207-4.557,0.415-6.903,0.553h-0.069
		c-2.278,0.207-4.487,0.346-6.834,0.484v-52.605c2.347-0.138,4.556-0.276,6.834-0.483h0.069
		C239.962,233.33,242.24,233.124,244.519,232.916z"/>
	<path style="fill:#DC8744;" d="M285.939,227.531v52.604c-2.278,0.414-4.556,0.828-6.903,1.174h-0.069
		c-2.278,0.345-4.487,0.758-6.834,1.035V229.74c2.347-0.276,4.556-0.69,6.834-1.036h0.069
		C281.383,228.36,283.661,227.946,285.939,227.531z"/>
	<path style="fill:#DC8744;" d="M327.36,217.728v52.604c-2.278,0.691-4.557,1.38-6.903,2.071h-0.069
		c-2.209,0.621-4.487,1.242-6.834,1.864v-52.605c2.347-0.62,4.625-1.242,6.834-1.864h0.069
		C322.803,219.109,325.081,218.418,327.36,217.728z"/>
	<path style="fill:#DC8744;" d="M368.78,199.71v52.742c-2.14,1.312-4.418,2.692-6.903,3.935c0,0-0.069,0-0.069,0.069
		c-2.14,1.174-4.418,2.279-6.834,3.452v-52.604c2.416-1.174,4.694-2.278,6.834-3.52C364.293,202.54,366.571,201.16,368.78,199.71z"
		/>
</g>
<path style="fill:#F6C358;" d="M468.293,88.175v52.604c0,11.528-8.491,22.367-23.54,31.894c-2.14,1.312-4.418,2.692-6.903,3.935
	c0,0-0.069,0-0.069,0.069c-2.14,1.174-4.418,2.279-6.834,3.452c-8.077,3.797-17.397,7.318-27.614,10.424
	c-2.278,0.691-4.556,1.38-6.903,2.071h-0.069c-2.209,0.621-4.487,1.242-6.834,1.864c-8.698,2.209-17.88,4.21-27.614,5.868
	c-2.278,0.414-4.556,0.828-6.903,1.174h-0.069c-2.278,0.345-4.487,0.758-6.834,1.035c-8.905,1.311-18.087,2.348-27.614,3.175
	c-2.278,0.207-4.556,0.415-6.903,0.553h-0.069c-2.278,0.207-4.487,0.346-6.834,0.484c-8.974,0.551-18.225,0.897-27.614,0.966
	c-2.278,0.069-4.556,0.069-6.903,0.069h-0.069c-2.347,0-4.556,0-6.834-0.069c-9.389-0.069-18.639-0.415-27.614-0.966
	c-2.347-0.138-4.625-0.276-6.903-0.484h-0.069c-2.347-0.138-4.556-0.346-6.834-0.553c-9.527-0.828-18.708-1.864-27.614-3.175
	c-2.347-0.276-4.625-0.69-6.903-1.035h-0.069c-2.347-0.345-4.556-0.76-6.834-1.174c-9.734-1.658-18.915-3.659-27.614-5.868
	c-2.347-0.622-4.694-1.243-6.903-1.864h-0.069c-2.347-0.691-4.556-1.38-6.834-2.071c-10.217-3.106-19.537-6.627-27.614-10.424
	c-2.416-1.104-4.694-2.278-6.903-3.521c0,0-0.069,0-0.069-0.069c-2.416-1.173-4.694-2.484-6.834-3.865
	c-15.049-9.458-23.61-20.366-23.61-31.894V88.175H468.293z"/>
<path style="fill:#FCD462;" d="M468.293,88.175c0,11.529-8.491,22.367-23.54,31.756c-2.209,1.449-4.487,2.83-6.973,4.074
	c-2.14,1.242-4.418,2.346-6.834,3.52c-8.077,3.797-17.397,7.249-27.614,10.424c-2.278,0.69-4.556,1.381-6.903,2.071h-0.069
	c-2.209,0.622-4.487,1.244-6.834,1.864c-8.698,2.21-17.88,4.212-27.614,5.869c-2.278,0.415-4.556,0.828-6.903,1.173h-0.069
	c-2.278,0.346-4.487,0.76-6.834,1.036c-8.905,1.312-18.087,2.347-27.614,3.176c-2.278,0.207-4.556,0.414-6.903,0.552h-0.069
	c-2.278,0.206-4.487,0.345-6.834,0.483c-8.974,0.553-18.225,0.898-27.614,0.967c-2.278,0.069-4.556,0.069-6.903,0.069h-0.069
	c-2.347,0-4.556,0-6.834-0.069c-9.389-0.068-18.639-0.414-27.614-0.967c-2.347-0.138-4.625-0.276-6.903-0.483h-0.069
	c-2.347-0.138-4.556-0.345-6.834-0.552c-9.527-0.829-18.708-1.864-27.614-3.176c-2.347-0.276-4.625-0.69-6.903-1.036h-0.069
	c-2.347-0.345-4.556-0.758-6.834-1.173c-9.734-1.657-18.915-3.659-27.614-5.869c-2.347-0.62-4.694-1.242-6.903-1.864h-0.069
	c-2.347-0.689-4.556-1.38-6.834-2.071c-10.217-3.107-19.537-6.627-27.614-10.424c-2.416-1.105-4.694-2.278-6.903-3.52
	c0,0-0.069,0-0.069-0.069c-2.416-1.175-4.694-2.486-6.834-3.866c-15.049-9.458-23.61-20.365-23.61-31.894
	c0-37.002,87.88-67.033,196.195-67.033S468.293,51.173,468.293,88.175z"/>
<path style="fill:#F6C358;" d="M271.553,136.477c-1.948,0-3.805-0.003-5.713-0.061c-9.085-0.073-18.034-0.387-27.04-0.939
	c-2.198-0.131-4.277-0.256-6.354-0.445l-0.848-0.076h-0.348c-1.774-0.113-3.47-0.271-5.201-0.427
	c-10.18-0.89-18.851-1.887-27.091-3.098c-1.86-0.229-3.162-0.445-4.457-0.652l-3.808-0.585c-1.378-0.223-4.921-0.872-4.921-0.872
	c-8.905-1.515-17.457-3.332-26.351-5.595c-2.082-0.549-4.326-1.143-6.436-1.738l-6.567-1.97c-7.75-2.357-14.89-4.954-21.271-7.732
	v-0.076l-10.445-5.076l-3.311-1.863h-0.134c-0.503-0.299-1.006-0.613-1.506-0.936c-11.159-7.012-15.046-13.067-15.046-16.162
	c0-17.027,67.375-48.302,177.463-48.302c110.043,0,177.393,31.274,177.393,48.302c0,3.079-3.857,9.082-14.723,15.866
	c-2.302,1.5-3.921,2.451-5.442,3.213l-1.012,0.546c-1.738,1.009-3.601,1.893-5.561,2.848c-6.735,3.165-15.216,6.357-25.052,9.415
	l-6.485,1.927c-2.116,0.595-4.293,1.189-6.537,1.78c-8.732,2.22-17.284,4.037-25.979,5.515c-1.912,0.348-3.649,0.665-5.39,0.939
	l-3.762,0.579c-1.223,0.201-2.442,0.405-3.713,0.555c-8.774,1.287-17.448,2.28-27.04,3.116c-1.991,0.183-3.899,0.357-5.851,0.482
	l-1.195,0.076c-2.076,0.189-4.091,0.314-6.229,0.439c-9.061,0.558-18.009,0.872-26.662,0.936c-2.332,0.067-4.293,0.07-6.274,0.07
	C272.495,136.477,271.732,136.477,271.553,136.477z"/>
<g>
	<path style="fill:#DC8744;" d="M113.388,127.524v52.604c-2.416-1.104-4.694-2.278-6.903-3.521c0,0-0.069,0-0.069-0.069
		c-2.416-1.173-4.694-2.484-6.834-3.865v-52.604c2.14,1.38,4.418,2.692,6.834,3.866c0,0.069,0.069,0.069,0.069,0.069
		C108.694,125.246,110.972,126.42,113.388,127.524z"/>
	<path style="fill:#DC8744;" d="M154.809,141.883v52.605c-2.347-0.622-4.694-1.243-6.903-1.864h-0.069
		c-2.347-0.691-4.556-1.38-6.834-2.071v-52.604c2.278,0.69,4.487,1.381,6.834,2.071h0.069
		C150.115,140.641,152.462,141.263,154.809,141.883z"/>
	<path style="fill:#DC8744;" d="M196.229,149.96v52.604c-2.347-0.276-4.625-0.69-6.903-1.035h-0.069
		c-2.347-0.345-4.556-0.76-6.834-1.174v-52.604c2.278,0.415,4.487,0.828,6.834,1.173h0.069
		C191.604,149.27,193.882,149.685,196.229,149.96z"/>
	<path style="fill:#DC8744;" d="M237.65,154.171v52.605c-2.347-0.138-4.625-0.276-6.903-0.484h-0.069
		c-2.347-0.138-4.556-0.346-6.834-0.553v-52.603c2.278,0.207,4.487,0.414,6.834,0.552h0.069
		C233.025,153.895,235.303,154.033,237.65,154.171z"/>
	<path style="fill:#DC8744;" d="M279.07,155.138v52.604c-2.278,0.069-4.556,0.069-6.903,0.069h-0.069c-2.347,0-4.556,0-6.834-0.069
		v-52.604c2.278,0.069,4.487,0.069,6.834,0.069h0.069C274.514,155.207,276.792,155.207,279.07,155.138z"/>
	<path style="fill:#DC8744;" d="M320.491,153.137v52.603c-2.278,0.207-4.556,0.415-6.903,0.553h-0.069
		c-2.278,0.207-4.487,0.346-6.834,0.484v-52.605c2.347-0.138,4.556-0.276,6.834-0.483h0.069
		C315.934,153.55,318.213,153.344,320.491,153.137z"/>
	<path style="fill:#DC8744;" d="M361.911,147.752v52.604c-2.278,0.414-4.556,0.828-6.903,1.174h-0.069
		c-2.278,0.345-4.487,0.758-6.834,1.035V149.96c2.347-0.276,4.556-0.69,6.834-1.036h0.069
		C357.355,148.58,359.633,148.166,361.911,147.752z"/>
	<path style="fill:#DC8744;" d="M403.332,137.949v52.604c-2.278,0.691-4.556,1.38-6.903,2.071h-0.069
		c-2.209,0.621-4.487,1.242-6.834,1.864v-52.605c2.347-0.62,4.625-1.242,6.834-1.864h0.069
		C398.775,139.33,401.053,138.639,403.332,137.949z"/>
	<path style="fill:#DC8744;" d="M444.752,119.931v52.742c-2.14,1.312-4.418,2.692-6.903,3.935c0,0-0.069,0-0.069,0.069
		c-2.14,1.174-4.418,2.279-6.834,3.452v-52.604c2.416-1.174,4.694-2.278,6.834-3.52C440.265,122.76,442.543,121.38,444.752,119.931z
		"/>
</g>
<g>
</g>
<g>
</g>
<g>
</g>
<g>
</g>
<g>
</g>
<g>
</g>
<g>
</g>
<g>
</g>
<g>
</g>
<g>
</g>
<g>
</g>
<g>
</g>
<g>
</g>
<g>
</g>
<g>
</g>
</svg>
