<svg width="66" height="66" viewBox="0 0 66 66" fill="none" xmlns="http://www.w3.org/2000/svg">
<g filter="url(#filter0_d)">
<circle cx="33" cy="31" r="25" fill="white"/>
</g>
<path d="M33 45C33 45 45 39.4 45 31V21.2L33 17L21 21.2V31C21 39.4 33 45 33 45Z" fill="url(#paint0_linear)"/>
<path d="M34.2452 42.914C33.7362 43.2109 33.3083 43.4419 33 43.6023C32.6917 43.4419 32.2638 43.2109 31.7548 42.914C30.6684 42.2803 29.2262 41.3542 27.7907 40.1818C24.8527 37.7825 22.25 34.6054 22.25 31V22.0869L33 18.3244L43.75 22.0869V31C43.75 34.6054 41.1473 37.7825 38.2093 40.1818C36.7738 41.3542 35.3316 42.2803 34.2452 42.914Z" stroke="white" stroke-opacity="0.5" stroke-width="2.5" stroke-linecap="round" stroke-linejoin="round"/>
<defs>
<filter id="filter0_d" x="0" y="0" width="66" height="66" filterUnits="userSpaceOnUse" color-interpolation-filters="sRGB">
<feFlood flood-opacity="0" result="BackgroundImageFix"/>
<feColorMatrix in="SourceAlpha" type="matrix" values="0 0 0 0 0 0 0 0 0 0 0 0 0 0 0 0 0 0 127 0" result="hardAlpha"/>
<feOffset dy="2"/>
<feGaussianBlur stdDeviation="4"/>
<feComposite in2="hardAlpha" operator="out"/>
<feColorMatrix type="matrix" values="0 0 0 0 0 0 0 0 0 0 0 0 0 0 0 0 0 0 0.08 0"/>
<feBlend mode="normal" in2="BackgroundImageFix" result="effect1_dropShadow"/>
<feBlend mode="normal" in="SourceGraphic" in2="effect1_dropShadow" result="shape"/>
</filter>
<linearGradient id="paint0_linear" x1="21.1319" y1="17.3214" x2="48.6871" y2="21.6778" gradientUnits="userSpaceOnUse">
<stop stop-color="#105FCD"/>
<stop offset="1" stop-color="#3E87EE"/>
</linearGradient>
</defs>
</svg>
