<?xml version="1.0" encoding="UTF-8"?>
<svg xmlns="http://www.w3.org/2000/svg" id="Capa_1" enable-background="new 0 0 510.002 510.002" height="512" viewBox="0 0 510.002 510.002" width="512">
   <g id="XMLID_1260_">
      <path id="XMLID_1425_" d="m247.939 212.667-7.938 9.087v235.746c0 12.406-10.093 22.5-22.5 22.5-12.406 0-22.5-10.093-22.5-22.5 0-7.869 0-14.631 0-22.5-10.492 0-19.508 0-30 0v22.5c0 47.133 57.303 70.103 90 36.669l7.5-120.169-7.5-154z" fill="#6379a5" />
      <path id="XMLID_1420_" d="m263.043 213.458-8.042 6.542v274.169c9.77-9.99 15-23.06 15-36.669 0-13.092 0-222.619 0-235.736z" fill="#535e8b" />
      <path id="XMLID_260_" d="m255.001 0c-141.308 0-255 124.577-255 265v20h30c0-57.237 69.816-87.064 110.94-45.94 11.77 11.77 19.06 28.02 19.06 45.94z" fill="#fa473a" />
      <path id="XMLID_1421_" d="m350.001 285c0-17.92 7.29-34.17 19.06-45.94 41.039-41.039 110.94-11.378 110.94 45.94h30c0-6.995 0-13.005 0-20 0-141.711-114.813-265-255-265z" fill="#d51911" />
      <path id="XMLID_259_" d="m160.001 285h30c0-35.684 29.004-65 65-65l15-110-15-110c-66.195 0-97.391 164.462-95 285z" fill="#ff6e6a" />
      <path id="XMLID_246_" d="m320.001 285h30c0-6.995 0-13.005 0-20 0-101.268-28.781-265-95-265v220c35.345 0 65 28.726 65 65z" fill="#fa473a" />
   </g>
</svg>