<svg width="926" height="463" viewBox="0 0 926 463" fill="none" xmlns="http://www.w3.org/2000/svg">
<path d="M557.857 225.376H525.979V404.113H557.857V225.376Z" fill="white"/>
<path d="M777.537 225.376V397.231L745.658 415.609V225.376H777.537Z" fill="white"/>
<path d="M691.164 212.703V288.741C681.299 276.066 667.067 264.69 644.504 264.69C611.86 264.69 581.018 290.302 581.018 335.55V336.076C581.018 381.324 612.362 406.935 644.504 406.935C666.804 406.935 681.068 395.559 691.164 381.324V404.115H723.042V194.325L691.164 212.703ZM691.667 336.076C691.667 338.577 691.491 341.014 691.164 343.365C688.044 365.415 670.987 379.794 652.015 379.794C630.775 379.794 612.625 362.444 612.625 336.076V335.55C612.625 308.385 630.504 291.831 652.015 291.831C670.987 291.831 688.075 306.004 691.164 328.205C691.491 330.555 691.667 333.025 691.667 335.558V336.076Z" fill="white"/>
<path d="M793.798 336.332V335.814C793.798 296.755 821.526 264.683 860.66 264.683C904.2 264.683 926.234 298.826 926.234 338.148C926.234 340.992 925.973 343.836 925.718 346.943H825.158C828.526 369.184 844.337 381.603 864.547 381.603C879.84 381.603 890.726 375.916 901.606 365.304L920.011 381.603C907.048 397.121 889.17 407.215 864.028 407.215C824.383 407.207 793.798 378.488 793.798 336.332ZM895.132 326.238C893.065 306.06 881.14 290.287 860.404 290.287C841.225 290.287 827.744 305.032 824.894 326.238H895.132Z" fill="white"/>
<path opacity="0.3" fill-rule="evenodd" clip-rule="evenodd" d="M253.714 154.797V401.128H147.67L147 400.745V216.288L151.071 213.938L253.714 154.797Z" fill="white"/>
<path opacity="0.3" fill-rule="evenodd" clip-rule="evenodd" d="M287.889 462.291V215.961H393.932L394.603 216.343V400.8L390.533 403.151L287.889 462.291Z" fill="white"/>
<path fill-rule="evenodd" clip-rule="evenodd" d="M225.794 4.98112C197.693 12.7151 168.889 28.0955 148.627 42.9876C128.365 57.8797 75.4363 95.4039 63.3525 107.295C51.6365 118.823 37.7975 122.845 31.7417 137.051C29.4063 142.529 47.5783 159.056 51.1392 160.772C60.3805 165.225 75.4438 157.329 82.3172 156.857C104.624 155.327 127.484 152.359 150.078 167.65C145.897 171.871 152.536 167.327 143.99 204.344C140.976 217.397 134.391 251.263 142.483 257.724C150.522 264.144 155.432 239.118 163.42 242.95C163.416 242.956 163.418 242.971 163.415 242.976C163.413 242.981 163.411 242.998 163.411 243.003C163.411 243.006 163.404 243.026 163.406 243.029C163.409 243.032 163.427 243.032 163.431 243.034C163.455 243.041 163.509 243.038 163.56 243.032C163.575 243.039 163.594 243.034 163.609 243.041C163.666 243.068 163.717 243.1 163.774 243.128L163.822 243.001C167.603 242.023 197.085 229.035 223.998 234.258C239.169 237.202 263.367 228.948 277.288 224.642C299.364 217.814 330.356 211.644 350.016 211.292C364.499 211.032 377.603 202.833 391.537 201.877C399.757 201.313 392.135 174.811 391.965 172.011C391.148 158.556 374.4 137.881 365.774 119.508C357.148 101.134 342.692 77.8105 326.77 59.5214C310.848 41.2322 289.368 17.55 274.245 10.2628C259.121 2.9756 256.292 -3.41266 225.794 4.98112Z" fill="#D00000" stroke="black" stroke-width="0.833495"/>
<path opacity="0.101124" fill-rule="evenodd" clip-rule="evenodd" d="M158.646 69.5415C140.414 73.9581 124.799 132.233 102.327 142.363C87.63 148.989 47.5783 159.056 51.1393 160.772C60.3805 165.225 75.4438 157.329 82.3172 156.858C104.624 155.327 127.484 152.359 150.078 167.65C145.897 171.871 152.536 167.327 143.99 204.344C140.976 217.397 134.391 251.263 142.483 257.724C150.522 264.144 155.432 239.118 163.42 242.95C163.416 242.956 163.418 242.971 163.415 242.976C163.413 242.981 163.411 242.998 163.411 243.003C163.411 243.006 163.404 243.026 163.406 243.029C163.409 243.032 163.427 243.032 163.431 243.034C163.455 243.041 163.509 243.038 163.56 243.032C163.575 243.039 163.594 243.034 163.609 243.041C163.666 243.068 163.717 243.1 163.774 243.128L163.822 243.001C167.603 242.023 197.085 229.035 223.998 234.258C239.169 237.202 263.367 228.948 277.288 224.642C299.364 217.814 330.356 211.644 350.016 211.292C364.499 211.032 377.603 202.833 391.537 201.877C399.757 201.313 340.451 206.397 364.087 189.301C374.572 181.717 259.103 205.109 214.773 154.524C170.878 104.436 177.318 65.0187 158.646 69.5415Z" fill="#0E0000"/>
<g opacity="0.269663">
<path fill-rule="evenodd" clip-rule="evenodd" d="M33.6138 130.83C37.1647 133.183 61.0117 163.347 63.829 161.236C64.1696 157.905 61.3883 156.594 59.4319 156.213C62.0515 152.884 62.5453 149.403 57.9994 149.104C52.9592 148.214 47.4569 147.589 52.8669 142.168C55.3647 139.129 52.6989 133.733 51.1652 130.988C47.1357 128.811 44.0992 124.873 42.4475 122.197" fill="black"/>
<path d="M33.6138 130.83C37.1647 133.183 61.0117 163.347 63.829 161.236C64.1696 157.905 61.3883 156.594 59.4319 156.213C62.0515 152.884 62.5453 149.403 57.9994 149.104C52.9592 148.214 47.4569 147.589 52.8669 142.168C55.3647 139.129 52.6989 133.733 51.1652 130.988C47.1357 128.811 44.0992 124.873 42.4475 122.197" stroke="black" stroke-width="0.830161"/>
</g>
<g opacity="0.294045">
<path fill-rule="evenodd" clip-rule="evenodd" d="M357.288 195.784C349.837 193.142 340.487 190.089 333.898 190.497C329.373 186.674 325.9 191.385 321.98 192.638C321.322 185.279 310.469 195.751 305.688 195.811C302.294 197.759 304.633 190.01 298.555 192.958C290.997 193.672 286.322 194.191 280.716 196.618C279.369 204.631 267.267 209.145 265.455 200.363C258.857 203.234 246.587 208.804 246.507 199.721C235.943 207.915 235.607 215.319 225.293 219.274C226.206 212.182 202.923 208.366 199.749 215.809C193.359 218.382 201.078 206.488 191.844 209.757C181.444 206.733 187.497 227.692 166.291 219.123C154.483 218.743 161.022 235.842 153.23 243.005C151.153 250.537 142.146 240.381 138.5 240.945C139.348 252.872 141.908 248.827 139.219 256.942C137.615 267.107 135.468 272.197 146.651 274.314C150.272 269.41 146.469 271.485 147.279 280.531C153.737 278.652 162.226 267.891 161.354 278.95C165.736 272.277 179.609 268.799 179.434 261.611C186.456 262.348 194.337 270.19 200.264 260.658C206.215 253.617 214.768 250.351 214.858 255.789C222.092 262.546 222.815 261.177 230.336 259.457C228.399 250.746 247.936 258.859 237.619 250.185C241.717 246.082 252.806 243.684 259.215 245.11C264.885 253.364 282.159 254.047 284.847 243.363C285.411 234.959 298.529 232.084 303.434 237.895C311.964 230.416 325.418 241.283 332.758 235.551C326.161 226.988 342.083 221.392 345.056 227.958C350.898 224.821 356.334 213.535 362.725 221.615C370.074 219.22 379.049 215.889 385.267 213.393C389.934 221.086 402.014 213.172 396.777 203.861C393.943 197.21 406.087 207.135 402.781 198.697C399.02 189.62 393.738 177.005 387.267 177.422C378.455 175.22 373.229 181.167 372.864 189.583C372.752 183.441 362.341 189.428 356.88 191.655L353.887 192.367L350.31 189.844" fill="black"/>
<path d="M357.288 195.784C349.837 193.142 340.487 190.089 333.898 190.497C329.373 186.674 325.9 191.385 321.98 192.638C321.322 185.279 310.469 195.751 305.688 195.811C302.294 197.759 304.633 190.01 298.555 192.958C290.997 193.672 286.322 194.191 280.716 196.618C279.369 204.631 267.267 209.145 265.455 200.363C258.857 203.234 246.587 208.804 246.507 199.721C235.943 207.915 235.607 215.319 225.293 219.274C226.206 212.182 202.923 208.366 199.749 215.809C193.359 218.382 201.078 206.488 191.844 209.757C181.444 206.733 187.497 227.692 166.291 219.123C154.483 218.743 161.022 235.842 153.23 243.005C151.153 250.537 142.146 240.381 138.5 240.945C139.348 252.872 141.908 248.827 139.219 256.942C137.615 267.107 135.468 272.197 146.651 274.314C150.272 269.41 146.469 271.485 147.279 280.531C153.737 278.652 162.226 267.891 161.354 278.95C165.736 272.277 179.609 268.799 179.434 261.611C186.456 262.348 194.337 270.19 200.264 260.658C206.215 253.617 214.768 250.351 214.858 255.789C222.092 262.546 222.815 261.177 230.336 259.457C228.399 250.746 247.936 258.859 237.619 250.185C241.717 246.082 252.806 243.684 259.215 245.11C264.885 253.364 282.159 254.047 284.847 243.363C285.411 234.959 298.529 232.084 303.434 237.895C311.964 230.416 325.418 241.283 332.758 235.551C326.161 226.988 342.083 221.392 345.056 227.958C350.898 224.821 356.334 213.535 362.725 221.615C370.074 219.22 379.049 215.889 385.267 213.393C389.934 221.086 402.014 213.172 396.777 203.861C393.943 197.21 406.087 207.135 402.781 198.697C399.02 189.62 393.738 177.005 387.267 177.422C378.455 175.22 373.229 181.167 372.864 189.583C372.752 183.441 362.341 189.428 356.88 191.655L353.887 192.367L350.31 189.844" stroke="black" stroke-width="0.601426"/>
</g>
<path fill-rule="evenodd" clip-rule="evenodd" d="M362.215 198.028C354.763 195.386 347.858 195.014 341.27 195.422C336.745 191.599 331.375 192.853 327.454 194.107C326.796 186.747 317.84 200.676 313.06 200.736C309.665 202.684 312.005 194.935 305.926 197.883C298.369 198.597 289.607 193.911 284.001 196.338C282.654 204.351 270.552 208.864 268.74 200.082C262.142 202.954 253.958 213.729 253.879 204.646C241.494 204.103 236.189 216.279 225.875 220.234C226.788 213.142 210.294 213.291 207.12 220.734C200.731 223.307 205.421 207.296 196.188 210.564C185.787 207.54 186.071 228.262 173.662 224.048C161.855 223.668 163.504 235.406 155.711 242.569C153.635 250.101 149.518 245.306 145.872 245.87C151.871 254.384 127.479 252.61 134.72 265.74C133.116 275.906 135.569 283.212 146.752 285.329C150.373 280.426 153.841 276.41 154.651 285.456C161.108 283.577 169.597 272.816 168.726 283.875C173.108 277.202 186.98 273.724 186.806 266.536C193.828 267.273 201.708 275.115 207.636 265.583C213.586 258.542 214.569 264.287 214.659 269.725C221.893 276.482 230.187 266.102 237.708 264.382C235.771 255.67 255.307 263.784 244.991 255.11C249.088 251.007 260.178 248.609 266.587 250.035C272.21 255.369 289.531 258.972 292.219 248.288C292.783 239.884 305.901 237.009 310.806 242.82C319.336 235.341 332.79 246.208 340.13 240.476C333.532 231.913 349.454 226.317 352.428 232.883C358.269 229.746 363.706 218.46 370.096 226.54C377.446 224.145 386.421 220.814 392.638 218.318C397.305 226.011 409.386 218.097 404.149 208.786C401.314 202.135 413.459 212.06 410.152 203.622C410.226 193.966 406.589 179.022 394.639 182.347C385.826 180.145 380.601 186.092 380.235 194.508C380.124 188.366 366.21 190.584 360.749 192.811L358.96 193.757L357.681 194.769" fill="white"/>
<path d="M362.215 198.028C354.763 195.386 347.858 195.014 341.27 195.422C336.745 191.599 331.375 192.853 327.454 194.107C326.796 186.747 317.84 200.676 313.06 200.736C309.665 202.684 312.005 194.935 305.926 197.883C298.369 198.597 289.607 193.911 284.001 196.338C282.654 204.351 270.552 208.864 268.74 200.082C262.142 202.954 253.958 213.729 253.879 204.646C241.494 204.103 236.189 216.279 225.875 220.234C226.788 213.142 210.294 213.291 207.12 220.734C200.731 223.307 205.421 207.296 196.188 210.564C185.787 207.54 186.071 228.262 173.662 224.048C161.855 223.668 163.504 235.406 155.711 242.569C153.635 250.101 149.518 245.306 145.872 245.87C151.871 254.384 127.479 252.61 134.72 265.74C133.116 275.906 135.569 283.212 146.752 285.329C150.373 280.426 153.841 276.41 154.651 285.456C161.108 283.577 169.597 272.816 168.726 283.875C173.108 277.202 186.98 273.724 186.806 266.536C193.828 267.273 201.708 275.115 207.636 265.583C213.586 258.542 214.569 264.287 214.659 269.725C221.893 276.482 230.187 266.102 237.708 264.382C235.771 255.67 255.307 263.784 244.991 255.11C249.088 251.007 260.178 248.609 266.587 250.035C272.21 255.369 289.531 258.972 292.219 248.288C292.783 239.884 305.901 237.009 310.806 242.82C319.336 235.341 332.79 246.208 340.13 240.476C333.532 231.913 349.454 226.317 352.428 232.883C358.269 229.746 363.706 218.46 370.096 226.54C377.446 224.145 386.421 220.814 392.638 218.318C397.305 226.011 409.386 218.097 404.149 208.786C401.314 202.135 413.459 212.06 410.152 203.622C410.226 193.966 406.589 179.022 394.639 182.347C385.826 180.145 380.601 186.092 380.235 194.508C380.124 188.366 366.21 190.584 360.749 192.811L358.96 193.757L357.681 194.769" stroke="black" stroke-width="0.601426"/>
<path d="M147.37 187.086C150.511 146.239 171.156 127.636 167.522 94.9655C165.374 75.655 147.985 90.2928 153.652 108.407" stroke="black" stroke-width="0.833495"/>
<path opacity="0.11236" fill-rule="evenodd" clip-rule="evenodd" d="M155.669 242.817C153.593 250.349 149.475 245.554 145.829 246.118C151.828 254.632 127.437 252.858 134.678 265.988C133.074 276.154 135.526 283.46 146.709 285.577C150.331 280.673 153.798 276.658 154.608 285.704C161.066 283.824 169.555 273.064 168.683 284.123C173.065 277.45 186.938 273.971 186.763 266.784C193.785 267.521 201.329 274.133 207.256 264.601C213.207 257.56 214.526 264.535 214.616 269.973C221.85 276.729 230.144 266.349 237.665 264.63C235.728 255.918 246.532 263.085 244.948 255.358C243.911 250.298 278.593 251.796 273.605 246.848C258.699 232.061 235.414 254.34 232.045 252.918C228.676 251.496 224.953 252.358 229.66 250.199C234.366 248.039 222.917 251.591 213.382 248.204C203.847 244.817 196.868 249.099 196.231 257.547C189.049 253.08 188.535 258.154 177.346 261.265C184.475 250.842 164.746 258.496 164.746 258.496C164.746 258.496 168.184 247.068 162.007 248.577C165.328 242.612 161.642 240.775 161.642 240.775C161.642 240.775 163.461 235.654 155.669 242.817Z" fill="black"/>
<path fill-rule="evenodd" clip-rule="evenodd" d="M38.6354 122.443C37.3337 120.124 33.2779 119.486 32.756 117.52C33.6625 115.237 30.0969 116.893 29.3943 115.638C25.1999 119.071 19.4098 120.558 16.3016 125.28C17.9544 124.918 17.9504 122.502 16.1445 124.284C12.7434 125.974 9.45639 128.942 10.7353 133.177C11.0451 135.35 8.30974 137.22 11.6489 137.735C11.2134 141.214 5.99391 141.068 5.9908 144.139C7.14614 147.488 6.63791 150.979 3.89007 153.328C1.17204 155.87 2.29142 159.611 2.39048 162.699C1.0235 164.764 0.254054 166.685 2.05577 168.652C2.43722 172.2 5.38276 174.55 5.40471 178.241C6.64476 180.176 9.13142 180.057 10.4016 182.243C14.112 182.559 14.3843 187.74 17.9188 188.458C20.9549 189.449 24.5474 188.762 27.2832 189.488C29.5269 191.307 32.1024 192.575 34.9271 193.086C38.478 195.346 39.6848 189.721 41.8338 187.91C41.9452 185.078 43.9798 184.857 45.3423 187.242C48.4433 189.344 51.6564 185.724 53.8795 183.808C56.053 181.439 58.4914 179.388 60.9116 177.311C64.3475 173.433 65.5674 167.881 65.3752 162.776C65.7158 159.577 62.741 159.4 60.7846 159.034C61.6692 156.352 63.8981 152.493 59.3521 152.206C56.7451 151.525 50.8348 148.612 54.2196 145.544C56.7174 142.625 53.2798 138.696 51.7461 136.059C49.0899 133.945 47.5466 131 45.8949 128.429C42.6972 127.92 39.7006 125.976 38.8854 122.584C38.0318 119.89 38.649 121.885 38.9184 123.197" fill="white"/>
<path d="M38.6354 122.443C37.3337 120.124 33.2779 119.486 32.756 117.52C33.6625 115.237 30.0969 116.893 29.3943 115.638C25.1999 119.071 19.4098 120.558 16.3016 125.28C17.9544 124.918 17.9504 122.502 16.1445 124.284C12.7434 125.974 9.45639 128.942 10.7353 133.177C11.0451 135.35 8.30974 137.22 11.6489 137.735C11.2134 141.214 5.99391 141.068 5.9908 144.139C7.14614 147.488 6.63791 150.979 3.89007 153.328C1.17204 155.87 2.29142 159.611 2.39048 162.699C1.0235 164.764 0.254054 166.685 2.05577 168.652C2.43722 172.2 5.38276 174.55 5.40471 178.241C6.64476 180.176 9.13142 180.057 10.4016 182.243C14.112 182.559 14.3843 187.74 17.9188 188.458C20.9549 189.449 24.5474 188.762 27.2832 189.488C29.5269 191.307 32.1024 192.575 34.9271 193.086C38.478 195.346 39.6848 189.721 41.8338 187.91C41.9452 185.078 43.9798 184.857 45.3423 187.242C48.4433 189.344 51.6564 185.724 53.8795 183.808C56.053 181.439 58.4914 179.388 60.9116 177.311C64.3475 173.433 65.5674 167.881 65.3752 162.776C65.7158 159.577 62.741 159.4 60.7846 159.034C61.6692 156.352 63.8981 152.493 59.3521 152.206C56.7451 151.525 50.8348 148.612 54.2196 145.544C56.7174 142.625 53.2798 138.696 51.7461 136.059C49.0899 133.945 47.5466 131 45.8949 128.429C42.6972 127.92 39.7006 125.976 38.8854 122.584C38.0318 119.89 38.649 121.885 38.9184 123.197" stroke="black" stroke-width="0.813602"/>
<path opacity="0.0955056" fill-rule="evenodd" clip-rule="evenodd" d="M12.0955 158.044C10.4942 156.076 16.8169 157.003 16.295 155.037C17.2015 152.753 16.1167 152.658 15.4142 151.403C11.2197 154.837 12.2075 146.702 9.09931 151.425C10.7521 151.062 10.4803 145.091 8.67444 146.874C5.27334 148.563 5.99391 141.068 5.9908 144.139C7.14614 147.488 6.63791 150.979 3.89007 153.328C1.17204 155.87 2.29142 159.611 2.39048 162.699C1.0235 164.764 0.254054 166.685 2.05577 168.652C2.43722 172.2 5.38276 174.55 5.40471 178.241C6.64476 180.176 9.13142 180.057 10.4016 182.243C14.112 182.559 14.3843 187.74 17.9188 188.458C20.9549 189.449 24.5474 188.762 27.2832 189.488C29.5269 191.307 32.1024 192.575 34.9271 193.086C38.478 195.346 39.6848 189.721 41.8338 187.91C41.9452 185.078 43.9798 184.857 45.3423 187.242C48.4433 189.344 51.6564 185.724 53.8795 183.808C56.053 181.439 45.5336 184.168 47.9538 182.09C51.3897 178.212 40.2013 187.504 40.009 182.399C40.3496 179.2 27.6386 186.469 30.3305 180.845C31.2151 178.163 31.8664 180.097 27.3205 179.81C24.7135 179.129 17.5169 174.316 20.9017 171.248C23.3996 168.329 19.5597 171.704 18.0259 169.068C15.3697 166.954 17.0662 168.118 15.4146 165.546C12.2169 165.037 13.6228 163.73 12.8076 160.338C11.4243 164.318 11.8261 156.732 12.0955 158.044Z" fill="black"/>
<path fill-rule="evenodd" clip-rule="evenodd" d="M149.361 168.559C149.361 168.559 162.506 135.048 165.664 121.678C168.619 109.169 168.237 90.0746 163.811 86.5406C159.385 83.0065 153.564 89.1189 152.95 96.3566C152.337 103.594 151.823 105.418 154.794 119.224C156.14 125.483 155.468 140.317 153.637 147.319C151.806 154.32 147.81 170.265 149.361 168.559Z" fill="black" fill-opacity="0.223464"/>
</svg>
