<?xml version="1.0" standalone="no"?>
<!DOCTYPE svg PUBLIC "-//W3C//DTD SVG 20010904//EN"
 "http://www.w3.org/TR/2001/REC-SVG-20010904/DTD/svg10.dtd">
<svg version="1.0" xmlns="http://www.w3.org/2000/svg"
 width="920.000000pt" height="1045.000000pt" viewBox="0 0 920.000000 1045.000000"
 preserveAspectRatio="xMidYMid meet">

<g transform="translate(0.000000,1045.000000) scale(0.100000,-0.100000)"
fill="#000000" stroke="none">
<path d="M4498 10431 c-15 -5 -60 -27 -100 -49 -78 -43 -95 -50 -668 -280
-460 -184 -608 -242 -640 -252 -14 -5 -63 -23 -110 -40 -441 -165 -928 -300
-1460 -405 -206 -40 -489 -85 -795 -126 -44 -5 -109 -14 -145 -19 -81 -11
-208 -26 -365 -40 -131 -13 -164 -22 -191 -51 -16 -18 -18 -73 -21 -799 l-3
-780 1603 -2 1602 -3 43 -23 c184 -98 171 -445 -20 -528 -41 -18 -106 -19
-1610 -22 -1232 -2 -1568 -5 -1568 -15 0 -6 9 -82 20 -167 12 -85 30 -222 40
-305 11 -82 24 -186 30 -230 6 -44 15 -116 21 -160 5 -44 14 -111 19 -150 5
-38 14 -110 20 -160 6 -49 13 -98 16 -107 5 -17 124 -18 2157 -20 1779 -3
2159 -6 2192 -17 90 -30 165 -151 165 -267 0 -64 -32 -166 -66 -210 -13 -18
-45 -43 -71 -55 l-48 -24 -2094 -3 -2093 -2 7 -46 c6 -42 47 -192 93 -344 53
-173 127 -415 152 -500 16 -52 40 -133 53 -179 14 -46 35 -93 47 -105 l21 -21
1237 -5 1237 -5 48 -28 c54 -32 92 -83 113 -153 38 -126 -9 -296 -97 -348 -78
-46 -70 -46 -1221 -46 -726 0 -1088 -3 -1088 -10 0 -18 180 -370 268 -525 87
-153 337 -541 375 -584 12 -13 40 -32 62 -42 38 -18 93 -19 1184 -19 871 0
1153 -3 1185 -12 60 -18 131 -92 150 -159 20 -67 20 -161 0 -228 -19 -67 -90
-141 -150 -159 -31 -9 -265 -12 -956 -12 -741 0 -918 -2 -926 -13 -21 -25 573
-543 867 -757 302 -219 757 -484 1084 -629 26 -11 66 -30 90 -40 23 -10 96
-42 162 -69 260 -109 285 -109 545 -2 975 400 1856 1051 2496 1845 198 246
374 493 514 726 158 261 390 757 601 1287 149 374 235 646 329 1036 51 213 62
265 121 614 111 652 133 809 168 1182 51 542 61 780 68 1605 6 685 5 743 -11
776 -9 20 -28 41 -40 47 -27 12 -127 26 -296 42 -63 6 -151 15 -195 20 -44 5
-127 14 -185 20 -418 44 -997 157 -1445 281 -38 11 -86 24 -105 29 -225 62
-704 214 -920 291 -440 159 -762 293 -1165 482 -142 67 -154 71 -230 74 -44 1
-92 -1 -107 -6z"/>
</g>
</svg>
