<svg width="880" height="880" viewBox="0 0 880 880" fill="none" xmlns="http://www.w3.org/2000/svg">
<circle cx="440" cy="440" r="440" fill="white"/>
<path d="M508.665 129.739L161.812 284.168C129.883 298.384 115.524 335.791 129.739 367.719C143.955 399.648 181.362 414.007 213.29 399.791L560.143 245.363C592.072 231.147 606.431 193.74 592.216 161.812C578 129.883 540.593 115.524 508.665 129.739Z" fill="#37BEC1"/>
<path d="M412.453 380.381L181.215 483.334C149.286 497.55 134.927 534.957 149.143 566.885C163.358 598.814 200.765 613.173 232.694 598.958L463.932 496.004C495.86 481.788 510.219 444.381 496.004 412.453C481.788 380.524 444.381 366.165 412.453 380.381Z" fill="#FBB144"/>
<path d="M663.095 476.592L316.242 631.021C284.314 645.237 269.955 682.644 284.17 714.572C298.386 746.501 335.793 760.86 367.721 746.644L714.574 592.216C746.502 578 760.862 540.593 746.646 508.665C732.431 476.736 695.024 462.377 663.095 476.592Z" fill="#E4615E"/>
</svg>
