<svg xmlns="http://www.w3.org/2000/svg" width="48" height="48" viewBox="0 0 48 48" fill="none"> <path d="M0 24C0 10.7452 10.7452 0 24 0C37.2548 0 48 10.7452 48 24C48 37.2548 37.2548 48 24 48C10.7452 48 0 37.2548 0 24Z" fill="#006AE3"/> <path d="M23.0088 34.1186V14.1506H25.183V34.1186H23.0088Z" fill="white"/> <path d="M34.0764 20.8033L27.3618 22.5841L25.8644 15.6145L27.861 15.1633L28.6481 18.4657C28.6481 18.4657 30.4623 15.4897 28.0434 12.4081C26.6179 10.8241 25.9412 10.7569 24.3429 10.5073C22.9367 10.3057 19.6682 10.7809 18.6939 14.5969C18.2811 17.0545 18.7467 18.8737 21.9144 21.2545L21.7368 23.9041C21.7368 23.9041 18.1996 21.4129 17.2876 19.6657C16.5821 18.2833 15.3726 15.5521 17.5564 11.7505C18.7323 9.84973 21.0505 8.02573 25.1349 8.21773C27.1891 8.30413 32.2045 10.8145 31.427 16.6801C31.2926 17.7793 30.7215 19.2433 30.7215 19.2433L33.4764 18.6289L34.0764 20.8033Z" fill="white"/> <path d="M30.2417 36.4274C29.013 38.2946 26.6469 40.0562 22.5721 39.7586C20.5179 39.6194 15.5744 36.9746 16.5055 31.133C16.6687 30.0386 17.2782 28.5938 17.2782 28.5938L14.5089 29.1314L13.9666 26.9474L20.7291 25.3442L22.0441 32.3522L20.0331 32.7506L19.3324 29.4242C19.3324 29.4242 17.4414 32.3474 19.774 35.4962C21.1562 37.1186 21.8282 37.2002 23.4264 37.493C24.8231 37.733 28.1059 37.3394 29.181 33.5522C29.6562 31.109 29.2386 29.2754 26.1381 26.8082L26.3877 24.1634C26.3877 24.1634 29.8578 26.7458 30.7217 28.517C31.384 29.9234 32.5215 32.6882 30.2417 36.4274Z" fill="white"/>  </svg>