<svg xmlns="http://www.w3.org/2000/svg" xmlns:xlink="http://www.w3.org/1999/xlink" version="1.1" id="Layer_1" x="0px" y="0px" viewBox="0 -0.5 5.45 5.45" width="250" height="250" style="enable-background:new 0 0 21.19 4.74;" xml:space="preserve">
<style type="text/css">
	.st0{fill:#FFFFFF;}
	.st1{fill:#8247E5;}
</style>
<g>
	<path class="st1" d="M4.09,1.45c-0.1-0.06-0.23-0.06-0.34,0L2.97,1.91L2.44,2.21L1.66,2.67c-0.1,0.06-0.23,0.06-0.34,0L0.7,2.31   C0.6,2.25,0.53,2.14,0.53,2.02V1.31c0-0.12,0.06-0.23,0.17-0.29l0.61-0.35c0.1-0.06,0.23-0.06,0.34,0l0.61,0.35   c0.1,0.06,0.17,0.17,0.17,0.29v0.46l0.53-0.31V1c0-0.12-0.06-0.23-0.17-0.29L1.66,0.05c-0.1-0.06-0.23-0.06-0.34,0L0.17,0.71   C0.06,0.77,0,0.88,0,1v1.33c0,0.12,0.06,0.23,0.17,0.29l1.15,0.66c0.1,0.06,0.23,0.06,0.34,0l0.78-0.45l0.53-0.31l0.78-0.45   c0.1-0.06,0.23-0.06,0.34,0l0.61,0.35c0.1,0.06,0.17,0.17,0.17,0.29v0.71c0,0.12-0.06,0.23-0.17,0.29L4.09,4.07   c-0.1,0.06-0.23,0.06-0.34,0L3.14,3.72c-0.1-0.06-0.17-0.17-0.17-0.29V2.97L2.44,3.28v0.46c0,0.12,0.06,0.23,0.17,0.29l1.15,0.66   c0.1,0.06,0.23,0.06,0.34,0l1.15-0.66c0.1-0.06,0.17-0.17,0.17-0.29V2.41c0-0.12-0.06-0.23-0.17-0.29L4.09,1.45z"/>
</g>
</svg>