<svg width="24" height="24" viewBox="0 0 24 24" fill="none" xmlns="http://www.w3.org/2000/svg">
<path fill-rule="evenodd" clip-rule="evenodd" d="M5.00098 2.51613C5.00098 2.23108 5.23206 2 5.51711 2H18.001C18.5533 2 19.001 2.44772 19.001 3V4H21C21.5523 4 22 4.44772 22 5V10.8333L21.8602 11.1C21.8396 11.1394 21.8159 11.1859 21.789 11.2387C21.4392 11.926 20.1673 13.3432 18.2722 14.1134C17.2678 16.1327 15.3168 17.5982 13 17.9293V20.1111L17.1104 20.5678C17.6169 20.6241 18 21.0522 18 21.5617V22H6V21.5617C6 21.0522 6.38314 20.6241 6.88957 20.5678L11 20.1111V17.929C8.68443 17.5974 6.73455 16.1326 5.73026 14.1144C3.83376 13.3446 2.56096 11.9268 2.21097 11.2392L2.2109 11.2391C2.18405 11.1863 2.16039 11.1398 2.13977 11.1005L2 10.8338V5.00033C2 4.44811 2.44762 4.00042 2.99984 4.00033L5 4V6L3.39772 6.00049V10.1721C3.66082 10.6808 4.24235 11.4824 5.08948 12.1162C5.03124 11.7527 5.00098 11.3799 5.00098 11V2.51613ZM19.001 11V6H20.6023V10.1717C20.3394 10.6798 19.7587 11.4807 18.9128 12.1143C18.9708 11.7514 19.001 11.3792 19.001 11Z" fill="white"/>
</svg>
